<svg width="909" height="270" viewBox="0 0 909 270" fill="none" xmlns="http://www.w3.org/2000/svg">
<path d="M377.194 116.496C357.64 116.496 347.341 79.1621 347.84 60.4954L234.107 76.4955L5.06596 2.99567C-1.91769 5.329 1.01511 118.048 95.7934 266.496L261.793 209.496L353.233 235.496C405.217 246.944 402.233 248.996 393.733 229.496L372.793 189.496C358.793 164.996 378.435 161.829 393.733 158.996M377.194 116.496H337.293V158.996M393.733 158.996H337.293ZM393.733 158.996H743.293ZM333.793 158.996H337.293ZM743.293 158.996H765.363C779.496 155.996 820.733 158.096 872.611 190.496C924.49 222.896 904.869 170.996 888.574 140.996L781.325 84.9954C785.116 103.614 758.898 113.179 743.293 116.09M743.293 158.996V116.09Z" fill="#7A0000"/>
<path d="M377.194 116.496C357.64 116.496 347.341 79.1621 347.84 60.4954L234.107 76.4955L5.06596 2.99567C-1.91769 5.329 1.01511 118.048 95.7934 266.496L261.793 209.496L353.233 235.496C405.217 246.944 402.233 248.996 393.733 229.496L372.793 189.496C358.793 164.996 378.435 161.829 393.733 158.996M377.194 116.496C389.64 116.496 483.109 116.496 583.788 116.496C641.281 116.496 699.035 116.496 740.92 116.496M377.194 116.496H337.293V158.996M393.733 158.996H337.293M393.733 158.996H743.293M337.293 158.996H333.793M743.293 158.996H765.363C779.496 155.996 820.733 158.096 872.611 190.496C924.49 222.896 904.869 170.996 888.574 140.996L781.325 84.9954C785.116 103.614 758.898 113.179 743.293 116.09V158.996Z" stroke="black" stroke-width="5"/>
<path d="M803.39 78.5261L799.85 76.7113C798.376 75.9554 796.57 76.539 795.817 78.0148L794.002 81.5726C793.248 83.0484 793.833 84.8575 795.308 85.6134L798.847 87.4282C800.322 88.1841 802.127 87.6005 802.88 86.1247L804.696 82.5669C805.449 81.0911 804.864 79.282 803.39 78.5261Z" fill="#A52A2A" stroke="black" stroke-width="2"/>
<path d="M820.243 86.9823L814.923 84.2551C813.94 83.7512 812.737 84.1402 812.234 85.1241L809.51 90.4633C809.008 91.4472 809.398 92.6533 810.381 93.1572L815.7 95.8844C816.683 96.3884 817.887 95.9993 818.389 95.0154L821.113 89.6762C821.615 88.6923 821.226 87.4862 820.243 86.9823Z" fill="#A52A2A" stroke="black" stroke-width="2"/>
<path d="M836.205 94.9823L830.885 92.2551C829.902 91.7512 828.698 92.1402 828.196 93.1241L825.472 98.4633C824.97 99.4472 825.36 100.653 826.342 101.157L831.662 103.884C832.645 104.388 833.849 103.999 834.351 103.015L837.075 97.6762C837.577 96.6923 837.188 95.4862 836.205 94.9823Z" fill="#A52A2A" stroke="black" stroke-width="2"/>
<path d="M851.17 102.982L845.85 100.255C844.867 99.7512 843.664 100.14 843.161 101.124L840.437 106.463C839.935 107.447 840.325 108.653 841.308 109.157L846.627 111.884C847.61 112.388 848.814 111.999 849.316 111.015L852.04 105.676C852.542 104.692 852.153 103.486 851.17 102.982Z" fill="#A52A2A" stroke="black" stroke-width="2"/>
<path d="M860.815 108.255L866.134 110.983C867.117 111.487 867.507 112.693 867.005 113.677L864.281 119.016C863.778 120 862.575 120.389 861.592 119.885L856.272 117.158C855.289 116.654 854.9 115.447 855.402 114.464L858.126 109.124C858.628 108.141 859.832 107.751 860.815 108.255Z" fill="#A52A2A" stroke="black" stroke-width="2"/>
<path d="M881.1 118.983L875.78 116.255C874.797 115.752 873.593 116.141 873.091 117.125L870.367 122.464C869.865 123.448 870.255 124.654 871.237 125.158L876.557 127.885C877.54 128.389 878.744 128 879.246 127.016L881.97 121.677C882.472 120.693 882.083 119.487 881.1 118.983Z" fill="#A52A2A" stroke="black" stroke-width="2"/>
<path d="M799.694 88.8547L796.152 86.9957L794.293 90.5374L797.835 92.3965L799.694 88.8547Z" fill="#020202"/>
<path d="M815.694 96.8547L812.152 94.9957L810.293 98.5374L813.835 100.396L815.694 96.8547Z" fill="#020202"/>
<path d="M831.542 105.3L827.152 102.996L825.293 106.537L829.683 108.842L831.542 105.3Z" fill="#020202"/>
<path d="M846.92 113.424L842.293 110.996L840.208 114.968L844.835 117.396L846.92 113.424Z" fill="#020202"/>
<path d="M862.005 121.424L857.378 118.996L855.293 122.968L859.92 125.396L862.005 121.424Z" fill="#020202"/>
<path d="M877.005 129.424L872.378 126.996L870.293 130.968L874.92 133.396L877.005 129.424Z" fill="#020202"/>
<path d="M741.793 115.996V159.996" stroke="black"/>
<path d="M169.669 107.667L176.254 115.193" stroke="black"/>
<path d="M169.669 161.667L176.254 169.193" stroke="black"/>
<path d="M197.293 209.996C205.025 209.996 211.293 203.728 211.293 195.996C211.293 188.264 205.025 181.996 197.293 181.996C189.561 181.996 183.293 188.264 183.293 195.996C183.293 203.728 189.561 209.996 197.293 209.996Z" stroke="black" stroke-width="2"/>
<path d="M197.293 204.496C201.988 204.496 205.793 200.69 205.793 195.996C205.793 191.301 201.988 187.496 197.293 187.496C192.599 187.496 188.793 191.301 188.793 195.996C188.793 200.69 192.599 204.496 197.293 204.496Z" fill="#1E1E1E" stroke="black" stroke-width="3"/>
<path d="M165.293 212.996C165.293 217.414 161.711 220.996 157.293 220.996C152.875 220.996 149.293 217.414 149.293 212.996C149.293 208.578 152.875 204.996 157.293 204.996C161.711 204.996 165.293 208.578 165.293 212.996Z" fill="#1E1E1E" stroke="black" stroke-width="4"/>
<path d="M128.293 235.996C132.712 235.996 136.293 232.414 136.293 227.996C136.293 223.577 132.712 219.996 128.293 219.996C123.875 219.996 120.293 223.577 120.293 227.996C120.293 232.414 123.875 235.996 128.293 235.996Z" fill="#1E1E1E" stroke="black" stroke-width="4"/>
<path d="M111.293 212.996C115.712 212.996 119.293 209.414 119.293 204.996C119.293 200.577 115.712 196.996 111.293 196.996C106.875 196.996 103.293 200.577 103.293 204.996C103.293 209.414 106.875 212.996 111.293 212.996Z" fill="#1E1E1E" stroke="black" stroke-width="4"/>
<path d="M329.293 106.496H319.293C314.047 106.496 309.793 110.749 309.793 115.996V160.996C309.793 166.242 314.047 170.496 319.293 170.496H329.293C334.54 170.496 338.793 166.242 338.793 160.996V115.996C338.793 110.749 334.54 106.496 329.293 106.496Z" fill="#919191" stroke="black"/>
<path d="M335.293 111.496H313.293C311.913 111.496 310.793 112.615 310.793 113.996V162.996C310.793 164.376 311.913 165.496 313.293 165.496H335.293C336.674 165.496 337.793 164.376 337.793 162.996V113.996C337.793 112.615 336.674 111.496 335.293 111.496Z" fill="#808080" stroke="black"/>
<path d="M318.293 110.996C319.398 110.996 320.293 110.1 320.293 108.996C320.293 107.891 319.398 106.996 318.293 106.996C317.189 106.996 316.293 107.891 316.293 108.996C316.293 110.1 317.189 110.996 318.293 110.996Z" fill="black"/>
<path d="M330.293 110.996C331.398 110.996 332.293 110.1 332.293 108.996C332.293 107.891 331.398 106.996 330.293 106.996C329.189 106.996 328.293 107.891 328.293 108.996C328.293 110.1 329.189 110.996 330.293 110.996Z" fill="black"/>
<path d="M318.293 169.996C319.398 169.996 320.293 169.1 320.293 167.996C320.293 166.891 319.398 165.996 318.293 165.996C317.189 165.996 316.293 166.891 316.293 167.996C316.293 169.1 317.189 169.996 318.293 169.996Z" fill="black"/>
<path d="M330.293 169.996C331.398 169.996 332.293 169.1 332.293 167.996C332.293 166.891 331.398 165.996 330.293 165.996C329.189 165.996 328.293 166.891 328.293 167.996C328.293 169.1 329.189 169.996 330.293 169.996Z" fill="black"/>
<path d="M233.293 106.496H223.293C218.047 106.496 213.793 110.749 213.793 115.996V160.996C213.793 166.242 218.047 170.496 223.293 170.496H233.293C238.54 170.496 242.793 166.242 242.793 160.996V115.996C242.793 110.749 238.54 106.496 233.293 106.496Z" fill="#919191" stroke="black"/>
<path d="M239.293 111.496H217.293C215.913 111.496 214.793 112.615 214.793 113.996V162.996C214.793 164.376 215.913 165.496 217.293 165.496H239.293C240.674 165.496 241.793 164.376 241.793 162.996V113.996C241.793 112.615 240.674 111.496 239.293 111.496Z" fill="#808080" stroke="black"/>
<path d="M222.293 110.996C223.398 110.996 224.293 110.1 224.293 108.996C224.293 107.891 223.398 106.996 222.293 106.996C221.189 106.996 220.293 107.891 220.293 108.996C220.293 110.1 221.189 110.996 222.293 110.996Z" fill="black"/>
<path d="M234.293 110.996C235.398 110.996 236.293 110.1 236.293 108.996C236.293 107.891 235.398 106.996 234.293 106.996C233.189 106.996 232.293 107.891 232.293 108.996C232.293 110.1 233.189 110.996 234.293 110.996Z" fill="black"/>
<path d="M222.293 169.996C223.398 169.996 224.293 169.1 224.293 167.996C224.293 166.891 223.398 165.996 222.293 165.996C221.189 165.996 220.293 166.891 220.293 167.996C220.293 169.1 221.189 169.996 222.293 169.996Z" fill="black"/>
<path d="M234.293 169.996C235.398 169.996 236.293 169.1 236.293 167.996C236.293 166.891 235.398 165.996 234.293 165.996C233.189 165.996 232.293 166.891 232.293 167.996C232.293 169.1 233.189 169.996 234.293 169.996Z" fill="black"/>
<path d="M204.793 138.496C204.793 147.486 204.792 155.567 203.923 161.403C203.489 164.325 202.844 166.626 201.911 168.185C200.993 169.719 199.825 170.496 198.293 170.496C196.761 170.496 195.593 169.719 194.675 168.185C193.742 166.626 193.097 164.325 192.663 161.403C191.794 155.567 191.793 147.486 191.793 138.496C191.793 129.506 191.794 121.425 192.663 115.589C193.097 112.667 193.742 110.366 194.675 108.807C195.593 107.273 196.761 106.496 198.293 106.496C199.825 106.496 200.993 107.273 201.911 108.807C202.844 110.366 203.489 112.667 203.923 115.589C204.792 121.425 204.793 129.506 204.793 138.496ZM179.293 138.496C179.293 147.486 179.292 155.567 178.423 161.403C177.989 164.325 177.344 166.626 176.411 168.185C175.493 169.719 174.325 170.496 172.793 170.496C171.261 170.496 170.093 169.719 169.175 168.185C168.242 166.626 167.597 164.325 167.163 161.403C166.294 155.567 166.293 147.486 166.293 138.496C166.293 129.506 166.294 121.425 167.163 115.589C167.597 112.667 168.242 110.366 169.175 108.807C170.093 107.273 171.261 106.496 172.793 106.496C174.325 106.496 175.493 107.273 176.411 108.807C177.344 110.366 177.989 112.667 178.423 115.589C179.292 121.425 179.293 129.506 179.293 138.496Z" fill="#E0E0E0" stroke="black"/>
<path d="M172.793 116.496C175.555 116.496 177.793 114.257 177.793 111.496C177.793 108.734 175.555 106.496 172.793 106.496C170.032 106.496 167.793 108.734 167.793 111.496C167.793 114.257 170.032 116.496 172.793 116.496Z" fill="#919191" stroke="black"/>
<path d="M168.597 108.599L176.537 114.678" stroke="black"/>
<path d="M177.793 165.496C177.793 168.257 175.554 170.496 172.793 170.496C170.032 170.496 167.793 168.257 167.793 165.496C167.793 162.735 170.032 160.496 172.793 160.496C175.554 160.496 177.793 162.735 177.793 165.496Z" fill="#919191" stroke="black"/>
<path d="M175.461 161.232L170.734 170.044" stroke="black"/>
<path d="M791.293 106.496C792.674 106.496 793.793 105.376 793.793 103.996C793.793 102.615 792.674 101.496 791.293 101.496C789.913 101.496 788.793 102.615 788.793 103.996C788.793 105.376 789.913 106.496 791.293 106.496Z" fill="#D9D9D9" stroke="black" stroke-width="3"/>
<path d="M821.293 124.496C822.674 124.496 823.793 123.376 823.793 121.996C823.793 120.615 822.674 119.496 821.293 119.496C819.913 119.496 818.793 120.615 818.793 121.996C818.793 123.376 819.913 124.496 821.293 124.496Z" fill="#D9D9D9" stroke="black" stroke-width="3"/>
<path d="M805.293 114.496C806.674 114.496 807.793 113.376 807.793 111.996C807.793 110.615 806.674 109.496 805.293 109.496C803.913 109.496 802.793 110.615 802.793 111.996C802.793 113.376 803.913 114.496 805.293 114.496Z" fill="#D9D9D9" stroke="black" stroke-width="3"/>
<path d="M867.293 147.496C868.674 147.496 869.793 146.376 869.793 144.996C869.793 143.615 868.674 142.496 867.293 142.496C865.913 142.496 864.793 143.615 864.793 144.996C864.793 146.376 865.913 147.496 867.293 147.496Z" fill="#D9D9D9" stroke="black" stroke-width="3"/>
<path d="M837.293 132.496C838.674 132.496 839.793 131.376 839.793 129.996C839.793 128.615 838.674 127.496 837.293 127.496C835.913 127.496 834.793 128.615 834.793 129.996C834.793 131.376 835.913 132.496 837.293 132.496Z" fill="#D9D9D9" stroke="black" stroke-width="3"/>
<path d="M852.293 140.496C853.674 140.496 854.793 139.376 854.793 137.996C854.793 136.615 853.674 135.496 852.293 135.496C850.913 135.496 849.793 136.615 849.793 137.996C849.793 139.376 850.913 140.496 852.293 140.496Z" fill="#D9D9D9" stroke="black" stroke-width="3"/>
<path d="M307.793 130.996H244.793V163.247L241.793 168.496L236.793 172.496H228.293V193.996L380.793 235.496L386.793 236.496L388.793 235.496L389.293 233.996L386.793 228.996L356.293 172.496H339.293H314.293L307.793 164.996V130.996Z" fill="#E0E0E0" stroke="black"/>
<path d="M343.293 158.996V115.996L740.293 115.996V158.996L343.293 158.996Z" fill="#4A2B0C" stroke="black" stroke-width="3"/>
<circle cx="673.793" cy="138.496" r="3.5" fill="black"/>
<circle cx="628.793" cy="138.496" r="3.5" fill="black"/>
<circle cx="588.793" cy="138.496" r="3.5" fill="black"/>
<circle cx="552.793" cy="138.496" r="3.5" fill="black"/>
<circle cx="498.793" cy="138.496" r="3.5" fill="black"/>
<circle cx="448.793" cy="138.496" r="3.5" fill="black"/>
<circle cx="420.293" cy="137.996" r="3" fill="black"/>
<path d="M399.293 137.728C399.293 138.833 398.398 139.728 397.293 139.728C396.189 139.728 395.293 138.833 395.293 137.728C395.293 136.624 396.189 135.728 397.293 135.728C398.398 135.728 399.293 136.624 399.293 137.728Z" fill="black"/>
<circle cx="378.293" cy="137.996" r="2" fill="black"/>
<path d="M364.293 137.496C364.293 138.324 363.622 138.996 362.793 138.996C361.965 138.996 361.293 138.324 361.293 137.496C361.293 136.667 361.965 135.996 362.793 135.996C363.622 135.996 364.293 136.667 364.293 137.496Z" fill="black"/>
<path d="M791.445 107.472L741.445 123.472" stroke="#3F3F3F"/>
<path d="M801.422 112.479L741.422 128.479" stroke="#3F3F3F"/>
<path d="M817.372 122.49L741.372 134.49" stroke="#3F3F3F"/>
<path d="M833.353 130.492L741.353 141.492" stroke="#3F3F3F"/>
<path d="M848.335 138.494L741.335 147.494" stroke="#3F3F3F"/>
<path d="M863.326 145.495L741.326 153.495" stroke="#3F3F3F"/>
<path d="M741.293 123.496L179.293 123.496" stroke="#1A1A1A"/>
<path d="M741.293 128.496L179.293 128.496" stroke="#1A1A1A"/>
<path d="M741.293 134.496L179.293 134.496" stroke="#1A1A1A"/>
<path d="M741.293 141.496L179.293 141.496" stroke="#303030"/>
<path d="M741.293 147.496L179.293 147.496" stroke="#303030"/>
<path d="M741.293 153.496L179.293 153.496" stroke="#303030"/>
<path d="M687.293 116.996L686.293 157.996" stroke="#666666"/>
<path d="M685.293 116.996L684.293 157.996" stroke="#666666"/>
<path d="M663.293 116.996L662.293 157.996" stroke="#666666"/>
<path d="M661.293 116.996L660.293 157.996" stroke="#666666"/>
<path d="M640.293 116.996L639.293 157.996" stroke="#666666"/>
<path d="M638.293 116.996L637.293 157.996" stroke="#666666"/>
<path d="M620.293 116.996L619.293 157.996" stroke="#666666"/>
<path d="M618.293 116.996L617.293 157.996" stroke="#666666"/>
<path d="M712.154 117.206L711.439 157.585" stroke="#666666"/>
<path d="M709.293 116.996L708.293 157.996" stroke="#666666"/>
<path d="M600.293 116.996L599.293 157.996" stroke="#303030"/>
<path d="M598.293 116.996L597.293 157.996" stroke="#666666"/>
<path d="M581.293 116.996L580.293 157.996" stroke="#666666"/>
<path d="M579.293 116.996L578.293 157.996" stroke="#666666"/>
<path d="M563.293 116.996L562.293 157.996" stroke="#666666"/>
<path d="M561.293 116.996L560.293 157.996" stroke="#666666"/>
<path d="M545.293 116.996L544.293 157.996" stroke="#666666"/>
<path d="M543.293 116.996L542.293 157.996" stroke="#666666"/>
<path d="M527.293 116.996L526.293 157.996" stroke="#666666"/>
<path d="M525.293 116.996L524.293 157.996" stroke="#666666"/>
<path d="M509.293 116.996L508.293 157.996" stroke="#666666"/>
<path d="M507.293 115.996L506.293 157.996" stroke="#666666"/>
<path d="M491.293 116.996L490.293 157.996" stroke="#666666"/>
<path d="M489.293 116.996L488.293 157.996" stroke="#666666"/>
<path d="M475.293 116.996L474.293 157.996" stroke="#666666"/>
<path d="M473.293 116.996L472.293 157.996" stroke="#666666"/>
<path d="M458.293 116.996L457.293 157.996" stroke="#666666"/>
<path d="M456.293 116.996L455.293 157.996" stroke="#666666"/>
<path d="M442.293 116.996L441.293 157.996" stroke="#666666"/>
<path d="M440.293 116.996L439.293 157.996" stroke="#666666"/>
<path d="M428.293 116.996L427.293 157.996" stroke="#666666"/>
<path d="M426.293 116.996L425.293 157.996" stroke="#666666"/>
<path d="M416.293 116.996L415.293 157.996" stroke="#666666"/>
<path d="M414.293 116.996L413.293 157.996" stroke="#666666"/>
<path d="M404.293 116.996L403.293 157.996" stroke="#666666"/>
<path d="M402.293 116.996L401.293 157.996" stroke="#666666"/>
<path d="M394.293 116.996L393.293 157.996" stroke="#666666"/>
<path d="M392.293 116.996L391.293 157.996" stroke="#666666"/>
<path d="M384.293 116.996L383.293 157.996" stroke="#666666"/>
<path d="M382.293 116.996L381.293 157.996" stroke="#666666"/>
<path d="M374.293 116.996L373.293 157.996" stroke="#666666"/>
<path d="M372.293 116.996L371.293 157.996" stroke="#666666"/>
<path d="M367.293 116.996L366.293 157.996" stroke="#666666"/>
<path d="M365.293 116.996L364.293 157.996" stroke="#666666"/>
<path d="M360.293 116.996L359.293 157.996" stroke="#666666"/>
<path d="M358.293 116.996L357.293 157.996" stroke="#666666"/>
<path d="M353.293 116.996L352.293 157.996" stroke="#666666"/>
<path d="M351.293 116.996L350.293 157.996" stroke="#666666"/>
<path d="M346.409 116.989L346.121 157.797" stroke="#666666"/>
<path d="M344.312 117.051L344.023 157.822" stroke="#666666"/>
<path d="M738.793 115.996V159.996" stroke="black"/>
</svg>
