<svg width="909" height="271" viewBox="0 0 909 271" fill="none" xmlns="http://www.w3.org/2000/svg">
<path d="M377.182 117.004C357.628 117.004 347.329 79.6706 347.828 61.0039L234.095 77.004L5.05327 3.50421C-1.93039 5.83754 1.00242 118.556 95.7807 267.004L261.781 210.004L353.221 236.004C405.204 247.452 402.221 249.504 393.721 230.004L372.781 190.004C358.781 165.504 378.423 162.337 393.721 159.504M377.182 117.004H337.281V159.504M393.721 159.504H337.281ZM393.721 159.504H743.281ZM333.781 159.504H337.281ZM743.281 159.504H765.351C779.484 156.504 820.721 158.604 872.599 191.004C924.478 223.404 904.857 171.504 888.562 141.504L781.313 85.5039C785.104 104.122 758.886 113.687 743.281 116.598M743.281 159.504V116.598Z" fill="black"/>
<path d="M377.182 117.004C357.628 117.004 347.329 79.6706 347.828 61.0039L234.095 77.004L5.05327 3.50421C-1.93039 5.83754 1.00242 118.556 95.7807 267.004L261.781 210.004L353.221 236.004C405.204 247.452 402.221 249.504 393.721 230.004L372.781 190.004C358.781 165.504 378.423 162.337 393.721 159.504M377.182 117.004C389.628 117.004 483.097 117.004 583.776 117.004C641.269 117.004 699.023 117.004 740.908 117.004M377.182 117.004H337.281V159.504M393.721 159.504H337.281M393.721 159.504H743.281M337.281 159.504H333.781M743.281 159.504H765.351C779.484 156.504 820.721 158.604 872.599 191.004C924.478 223.404 904.857 171.504 888.562 141.504L781.313 85.5039C785.104 104.122 758.886 113.687 743.281 116.598V159.504Z" stroke="#666666" stroke-width="5"/>
<path d="M204 140C204 148.99 203.999 157.071 203.13 162.907C202.696 165.829 202.051 168.13 201.118 169.689C200.2 171.223 199.032 172 197.5 172C195.968 172 194.8 171.223 193.882 169.689C192.949 168.13 192.304 165.829 191.87 162.907C191.001 157.071 191 148.99 191 140C191 131.01 191.001 122.929 191.87 117.093C192.304 114.171 192.949 111.87 193.882 110.311C194.8 108.777 195.968 108 197.5 108C199.032 108 200.2 108.777 201.118 110.311C202.051 111.87 202.696 114.171 203.13 117.093C203.999 122.929 204 131.01 204 140Z" fill="#FFCC33" stroke="#8C8C8C"/>
<path d="M233.707 107.504H223.707C218.46 107.504 214.207 111.758 214.207 117.004V162.004C214.207 167.251 218.46 171.504 223.707 171.504H233.707C238.953 171.504 243.207 167.251 243.207 162.004V117.004C243.207 111.758 238.953 107.504 233.707 107.504Z" fill="#996515" stroke="#E0E0E0"/>
<path d="M239.707 112.504H217.707C216.326 112.504 215.207 113.623 215.207 115.004V164.004C215.207 165.385 216.326 166.504 217.707 166.504H239.707C241.087 166.504 242.207 165.385 242.207 164.004V115.004C242.207 113.623 241.087 112.504 239.707 112.504Z" fill="#FFCC33" stroke="black"/>
<path d="M222.707 112.004C223.811 112.004 224.707 111.109 224.707 110.004C224.707 108.9 223.811 108.004 222.707 108.004C221.602 108.004 220.707 108.9 220.707 110.004C220.707 111.109 221.602 112.004 222.707 112.004Z" fill="black"/>
<path d="M234.707 112.004C235.811 112.004 236.707 111.109 236.707 110.004C236.707 108.9 235.811 108.004 234.707 108.004C233.602 108.004 232.707 108.9 232.707 110.004C232.707 111.109 233.602 112.004 234.707 112.004Z" fill="black"/>
<path d="M222.707 171.004C223.811 171.004 224.707 170.109 224.707 169.004C224.707 167.9 223.811 167.004 222.707 167.004C221.602 167.004 220.707 167.9 220.707 169.004C220.707 170.109 221.602 171.004 222.707 171.004Z" fill="black"/>
<path d="M234.707 171.004C235.811 171.004 236.707 170.109 236.707 169.004C236.707 167.9 235.811 167.004 234.707 167.004C233.602 167.004 232.707 167.9 232.707 169.004C232.707 170.109 233.602 171.004 234.707 171.004Z" fill="black"/>
<path d="M332.207 107.004H322.207C316.96 107.004 312.707 111.258 312.707 116.504V161.504C312.707 166.751 316.96 171.004 322.207 171.004H332.207C337.453 171.004 341.707 166.751 341.707 161.504V116.504C341.707 111.258 337.453 107.004 332.207 107.004Z" fill="#996515" stroke="#E0E0E0"/>
<path d="M338.207 112.004H316.207C314.826 112.004 313.707 113.123 313.707 114.504V163.504C313.707 164.885 314.826 166.004 316.207 166.004H338.207C339.587 166.004 340.707 164.885 340.707 163.504V114.504C340.707 113.123 339.587 112.004 338.207 112.004Z" fill="#FFCC33" stroke="black"/>
<path d="M321.207 111.504C322.311 111.504 323.207 110.609 323.207 109.504C323.207 108.4 322.311 107.504 321.207 107.504C320.102 107.504 319.207 108.4 319.207 109.504C319.207 110.609 320.102 111.504 321.207 111.504Z" fill="black"/>
<path d="M333.207 111.504C334.311 111.504 335.207 110.609 335.207 109.504C335.207 108.4 334.311 107.504 333.207 107.504C332.102 107.504 331.207 108.4 331.207 109.504C331.207 110.609 332.102 111.504 333.207 111.504Z" fill="black"/>
<path d="M321.207 170.504C322.311 170.504 323.207 169.609 323.207 168.504C323.207 167.4 322.311 166.504 321.207 166.504C320.102 166.504 319.207 167.4 319.207 168.504C319.207 169.609 320.102 170.504 321.207 170.504Z" fill="black"/>
<path d="M333.207 170.504C334.311 170.504 335.207 169.609 335.207 168.504C335.207 167.4 334.311 166.504 333.207 166.504C332.102 166.504 331.207 167.4 331.207 168.504C331.207 169.609 332.102 170.504 333.207 170.504Z" fill="black"/>
<path d="M308.207 132.004H245.207V164.256L242.207 169.504L237.207 173.504H228.707V195.004L381.207 236.504L387.207 237.504L389.207 236.504L389.707 235.004L387.207 230.004L356.707 173.504H339.707H314.707L308.207 166.004V132.004Z" fill="#E0E0E0" stroke="black"/>
<path d="M343.707 159.504V116.504L740.707 116.504V159.504L343.707 159.504Z" fill="#4A2B0C" stroke="black" stroke-width="3"/>
<path d="M343.707 159.504V116.504L740.707 116.504V159.504L343.707 159.504Z" fill="#4A2B0C" stroke="#777777" stroke-width="3"/>
<circle cx="674.207" cy="139.004" r="3.5" fill="black"/>
<circle cx="629.207" cy="139.004" r="3.5" fill="black"/>
<circle cx="589.207" cy="139.004" r="3.5" fill="black"/>
<circle cx="553.207" cy="139.004" r="3.5" fill="black"/>
<circle cx="499.207" cy="139.004" r="3.5" fill="black"/>
<circle cx="449.207" cy="139.004" r="3.5" fill="black"/>
<circle cx="420.707" cy="138.504" r="3" fill="black"/>
<path d="M399.707 138.237C399.707 139.341 398.811 140.237 397.707 140.237C396.602 140.237 395.707 139.341 395.707 138.237C395.707 137.132 396.602 136.237 397.707 136.237C398.811 136.237 399.707 137.132 399.707 138.237Z" fill="black"/>
<circle cx="378.707" cy="138.504" r="2" fill="black"/>
<path d="M364.707 138.004C364.707 138.833 364.035 139.504 363.207 139.504C362.378 139.504 361.707 138.833 361.707 138.004C361.707 137.176 362.378 136.504 363.207 136.504C364.035 136.504 364.707 137.176 364.707 138.004Z" fill="black"/>
<path d="M687.296 117.558L686.296 158.558" stroke="#666666"/>
<path d="M685.296 117.558L684.296 158.558" stroke="#666666"/>
<path d="M663.296 117.558L662.296 158.558" stroke="#666666"/>
<path d="M661.296 117.558L660.296 158.558" stroke="#666666"/>
<path d="M640.296 117.558L639.296 158.558" stroke="#666666"/>
<path d="M638.296 117.558L637.296 158.558" stroke="#666666"/>
<path d="M620.296 117.558L619.296 158.558" stroke="#666666"/>
<path d="M618.296 117.558L617.296 158.558" stroke="#666666"/>
<path d="M712.157 117.769L711.441 158.148" stroke="#666666"/>
<path d="M709.296 117.558L708.296 158.558" stroke="#666666"/>
<path d="M600.296 117.558L599.296 158.558" stroke="#666666"/>
<path d="M598.296 117.558L597.296 158.558" stroke="#666666"/>
<path d="M581.296 117.558L580.296 158.558" stroke="#666666"/>
<path d="M579.296 117.558L578.296 158.558" stroke="#666666"/>
<path d="M563.296 117.558L562.296 158.558" stroke="#666666"/>
<path d="M561.296 117.558L560.296 158.558" stroke="#666666"/>
<path d="M545.296 117.558L544.296 158.558" stroke="#666666"/>
<path d="M543.296 117.558L542.296 158.558" stroke="#666666"/>
<path d="M527.296 117.558L526.296 158.558" stroke="#666666"/>
<path d="M525.296 117.558L524.296 158.558" stroke="#666666"/>
<path d="M509.296 117.558L508.296 158.558" stroke="#666666"/>
<path d="M507.296 116.558L506.296 158.558" stroke="#666666"/>
<path d="M491.296 117.558L490.296 158.558" stroke="#666666"/>
<path d="M489.296 117.558L488.296 158.558" stroke="#666666"/>
<path d="M475.707 117.504L474.707 158.504" stroke="#666666"/>
<path d="M473.707 117.504L472.707 158.504" stroke="#666666"/>
<path d="M458.707 117.504L457.707 158.504" stroke="#666666"/>
<path d="M456.707 117.504L455.707 158.504" stroke="#666666"/>
<path d="M442.707 117.504L441.707 158.504" stroke="#666666"/>
<path d="M440.707 117.504L439.707 158.504" stroke="#666666"/>
<path d="M428.707 117.504L427.707 158.504" stroke="#666666"/>
<path d="M426.707 117.504L425.707 158.504" stroke="#666666"/>
<path d="M416.707 117.504L415.707 158.504" stroke="#666666"/>
<path d="M414.707 117.504L413.707 158.504" stroke="#666666"/>
<path d="M404.707 117.504L403.707 158.504" stroke="#666666"/>
<path d="M402.707 117.504L401.707 158.504" stroke="#666666"/>
<path d="M394.707 117.504L393.707 158.504" stroke="#666666"/>
<path d="M392.707 117.504L391.707 158.504" stroke="#666666"/>
<path d="M384.707 117.504L383.707 158.504" stroke="#666666"/>
<path d="M382.707 117.504L381.707 158.504" stroke="#666666"/>
<path d="M374.707 117.504L373.707 158.504" stroke="#666666"/>
<path d="M372.707 117.504L371.707 158.504" stroke="#666666"/>
<path d="M367.707 117.504L366.707 158.504" stroke="#666666"/>
<path d="M365.707 117.504L364.707 158.504" stroke="#666666"/>
<path d="M360.707 117.504L359.707 158.504" stroke="#666666"/>
<path d="M358.707 117.504L357.707 158.504" stroke="#666666"/>
<path d="M353.707 117.504L352.707 158.504" stroke="#666666"/>
<path d="M351.707 117.504L350.707 158.504" stroke="#666666"/>
<path d="M346.822 117.497L346.535 158.306" stroke="#666666"/>
<path d="M344.725 117.56L344.436 158.331" stroke="#666666"/>
<path d="M739.207 116.504V160.504" stroke="black"/>
<path d="M791.858 107.98L741.858 123.98" stroke="#3F3F3F"/>
<path d="M801.835 112.987L741.835 128.987" stroke="#3F3F3F"/>
<path d="M817.785 122.998L741.785 134.998" stroke="#3F3F3F"/>
<path d="M833.766 131L741.766 142" stroke="#3F3F3F"/>
<path d="M848.749 139.002L741.749 148.002" stroke="#3F3F3F"/>
<path d="M863.74 146.003L741.74 154.003" stroke="#3F3F3F"/>
<path d="M741.707 124.004L179.707 124.004" stroke="#1A1A1A"/>
<path d="M741.707 129.004L179.707 129.004" stroke="#1A1A1A"/>
<path d="M741.707 135.004L179.707 135.004" stroke="#1A1A1A"/>
<path d="M741.707 142.004L179.707 142.004" stroke="#303030"/>
<path d="M741.707 148.004L179.707 148.004" stroke="#303030"/>
<path d="M741.707 154.004L179.707 154.004" stroke="#303030"/>
<path d="M791.207 107.004C792.587 107.004 793.707 105.885 793.707 104.504C793.707 103.123 792.587 102.004 791.207 102.004C789.826 102.004 788.707 103.123 788.707 104.504C788.707 105.885 789.826 107.004 791.207 107.004Z" fill="white" stroke="#FFCC33" stroke-width="3"/>
<path d="M821.207 125.004C822.587 125.004 823.707 123.885 823.707 122.504C823.707 121.123 822.587 120.004 821.207 120.004C819.826 120.004 818.707 121.123 818.707 122.504C818.707 123.885 819.826 125.004 821.207 125.004Z" fill="white" stroke="#FFCC33" stroke-width="3"/>
<path d="M805.207 115.004C806.587 115.004 807.707 113.885 807.707 112.504C807.707 111.123 806.587 110.004 805.207 110.004C803.826 110.004 802.707 111.123 802.707 112.504C802.707 113.885 803.826 115.004 805.207 115.004Z" fill="white" stroke="#FFCC33" stroke-width="3"/>
<path d="M867.207 148.004C868.587 148.004 869.707 146.885 869.707 145.504C869.707 144.123 868.587 143.004 867.207 143.004C865.826 143.004 864.707 144.123 864.707 145.504C864.707 146.885 865.826 148.004 867.207 148.004Z" fill="white" stroke="#FFCC33" stroke-width="3"/>
<path d="M837.207 133.004C838.587 133.004 839.707 131.885 839.707 130.504C839.707 129.123 838.587 128.004 837.207 128.004C835.826 128.004 834.707 129.123 834.707 130.504C834.707 131.885 835.826 133.004 837.207 133.004Z" fill="white" stroke="#FFCC33" stroke-width="3"/>
<path d="M852.207 141.004C853.587 141.004 854.707 139.885 854.707 138.504C854.707 137.123 853.587 136.004 852.207 136.004C850.826 136.004 849.707 137.123 849.707 138.504C849.707 139.885 850.826 141.004 852.207 141.004Z" fill="white" stroke="#FFCC33" stroke-width="3"/>
<path d="M804.459 79.1876L800.919 77.3729C799.444 76.617 797.639 77.2006 796.886 78.6764L795.07 82.2341C794.317 83.7099 794.902 85.5191 796.376 86.275L799.916 88.0898C801.39 88.8457 803.196 88.2621 803.949 86.7862L805.765 83.2285C806.518 81.7527 805.933 79.9435 804.459 79.1876Z" fill="#FFCC33" stroke="black" stroke-width="2"/>
<path d="M821.311 87.6439L815.992 84.9167C815.009 84.4127 813.805 84.8018 813.303 85.7857L810.579 91.1249C810.076 92.1087 810.466 93.3148 811.449 93.8188L816.769 96.546C817.752 97.0499 818.955 96.6608 819.457 95.677L822.182 90.3378C822.684 89.3539 822.294 88.1478 821.311 87.6439Z" fill="#FFCC33" stroke="black" stroke-width="2"/>
<path d="M837.273 95.6439L831.954 92.9167C830.971 92.4127 829.767 92.8018 829.265 93.7857L826.54 99.1249C826.038 100.109 826.428 101.315 827.411 101.819L832.731 104.546C833.713 105.05 834.917 104.661 835.419 103.677L838.144 98.3378C838.646 97.3539 838.256 96.1478 837.273 95.6439Z" fill="#FFCC33" stroke="black" stroke-width="2"/>
<path d="M852.238 103.644L846.919 100.917C845.936 100.413 844.732 100.802 844.23 101.786L841.506 107.125C841.003 108.109 841.393 109.315 842.376 109.819L847.696 112.546C848.679 113.05 849.882 112.661 850.384 111.677L853.109 106.338C853.611 105.354 853.221 104.148 852.238 103.644Z" fill="#FFCC33" stroke="black" stroke-width="2"/>
<path d="M861.884 108.916L867.203 111.644C868.186 112.148 868.576 113.354 868.074 114.338L865.35 119.677C864.847 120.661 863.644 121.05 862.661 120.546L857.341 117.819C856.358 117.315 855.969 116.108 856.471 115.125L859.195 109.785C859.697 108.802 860.901 108.412 861.884 108.916Z" fill="#FFCC33" stroke="black" stroke-width="2"/>
<path d="M882.168 119.644L876.849 116.917C875.866 116.413 874.662 116.802 874.16 117.786L871.435 123.125C870.933 124.109 871.323 125.315 872.306 125.819L877.626 128.546C878.608 129.05 879.812 128.661 880.314 127.677L883.039 122.338C883.541 121.354 883.151 120.148 882.168 119.644Z" fill="#FFCC33" stroke="black" stroke-width="2"/>
<path d="M800.763 89.5163L797.221 87.6572L795.362 91.199L798.904 93.058L800.763 89.5163Z" fill="#020202"/>
<path d="M816.763 97.5163L813.221 95.6572L811.362 99.199L814.904 101.058L816.763 97.5163Z" fill="#020202"/>
<path d="M832.611 105.961L828.221 103.657L826.362 107.199L830.752 109.503L832.611 105.961Z" fill="#020202"/>
<path d="M847.989 114.086L843.362 111.657L841.277 115.63L845.904 118.058L847.989 114.086Z" fill="#020202"/>
<path d="M863.074 122.086L858.447 119.657L856.362 123.63L860.989 126.058L863.074 122.086Z" fill="#020202"/>
<path d="M878.074 130.086L873.447 127.657L871.362 131.63L875.989 134.058L878.074 130.086Z" fill="#020202"/>
<path d="M179.707 139.504C179.707 148.494 179.706 156.575 178.837 162.411C178.403 165.333 177.758 167.634 176.825 169.193C175.907 170.727 174.739 171.504 173.207 171.504C171.675 171.504 170.507 170.727 169.589 169.193C168.656 167.634 168.011 165.333 167.577 162.411C166.708 156.575 166.707 148.494 166.707 139.504C166.707 130.514 166.708 122.433 167.577 116.597C168.011 113.675 168.656 111.374 169.589 109.815C170.507 108.281 171.675 107.504 173.207 107.504C174.739 107.504 175.907 108.281 176.825 109.815C177.758 111.374 178.403 113.675 178.837 116.597C179.706 122.433 179.707 130.514 179.707 139.504Z" fill="#FFCC33" stroke="#8C8C8C"/>
<path d="M173.207 117.504C175.968 117.504 178.207 115.266 178.207 112.504C178.207 109.743 175.968 107.504 173.207 107.504C170.445 107.504 168.207 109.743 168.207 112.504C168.207 115.266 170.445 117.504 173.207 117.504Z" fill="#E0E0E0" stroke="black"/>
<path d="M169.01 109.607L176.951 115.686" stroke="black"/>
<path d="M178.207 166.504C178.207 169.265 175.968 171.504 173.207 171.504C170.446 171.504 168.207 169.265 168.207 166.504C168.207 163.743 170.446 161.504 173.207 161.504C175.968 161.504 178.207 163.743 178.207 166.504Z" fill="#E0E0E0" stroke="black"/>
<path d="M175.874 162.24L171.147 171.052" stroke="black"/>
<path d="M197.707 211.004C205.439 211.004 211.707 204.736 211.707 197.004C211.707 189.272 205.439 183.004 197.707 183.004C189.975 183.004 183.707 189.272 183.707 197.004C183.707 204.736 189.975 211.004 197.707 211.004Z" fill="#1E1E1E" stroke="#E0E0E0" stroke-width="2"/>
<path d="M197.707 205.504C202.401 205.504 206.207 201.699 206.207 197.004C206.207 192.31 202.401 188.504 197.707 188.504C193.012 188.504 189.207 192.31 189.207 197.004C189.207 201.699 193.012 205.504 197.707 205.504Z" fill="#1E1E1E" stroke="#E0E0E0" stroke-width="3"/>
<path d="M165.707 214.004C165.707 218.422 162.125 222.004 157.707 222.004C153.289 222.004 149.707 218.422 149.707 214.004C149.707 209.586 153.289 206.004 157.707 206.004C162.125 206.004 165.707 209.586 165.707 214.004Z" fill="#1E1E1E" stroke="#E0E0E0" stroke-width="2"/>
<path d="M128.707 237.004C133.125 237.004 136.707 233.422 136.707 229.004C136.707 224.586 133.125 221.004 128.707 221.004C124.288 221.004 120.707 224.586 120.707 229.004C120.707 233.422 124.288 237.004 128.707 237.004Z" fill="#1E1E1E" stroke="#E0E0E0" stroke-width="2"/>
<path d="M111.707 214.004C116.125 214.004 119.707 210.422 119.707 206.004C119.707 201.586 116.125 198.004 111.707 198.004C107.288 198.004 103.707 201.586 103.707 206.004C103.707 210.422 107.288 214.004 111.707 214.004Z" fill="#1E1E1E" stroke="#E0E0E0" stroke-width="2"/>
</svg>
