<svg width="909" height="273" viewBox="0 0 909 273" fill="none" xmlns="http://www.w3.org/2000/svg">
<path d="M307.087 132H244.087V164.252L241.087 169.5L236.087 173.5H227.587V195L380.087 236.5L386.087 237.5L388.087 236.5L388.587 235L386.087 230L355.587 173.5H338.587H313.587L307.087 166V132Z" stroke="black" stroke-width="2"/>
<path d="M376.901 116.5C357.347 116.5 347.048 79.1664 347.547 60.4997L233.814 76.4998L4.77267 3C-2.21098 5.33333 1.22167 121.052 96 269.5L265 215L359.5 239.5C368.319 241.063 385.544 246.044 394.307 245.5C398.628 245.232 401.5 244.349 401.5 242.5L376.901 196.5C359.5 170.5 379.009 161.833 394.307 159M376.901 116.5C389.347 116.5 482.816 116.5 583.495 116.5C640.988 116.5 698.742 116.5 740.627 116.5C755.758 114.166 785.023 104.6 781.032 84.9997L888.281 141C904.576 171 924.197 222.9 872.318 190.5C820.44 158.1 779.203 156 765.07 159H394.307M376.901 116.5H337M394.307 159H333.5" stroke="black" stroke-width="5"/>
<path d="M687.5 116.011L686.5 160.011" stroke="#303030"/>
<path d="M685.5 116.011L684.5 160.011" stroke="#303030"/>
<path d="M663.5 116.011L662.5 160.011" stroke="#303030"/>
<path d="M661.5 116.011L660.5 160.011" stroke="#303030"/>
<path d="M640.5 117.011L639.5 161.011" stroke="#303030"/>
<path d="M638.5 117.011L637.5 161.011" stroke="#303030"/>
<path d="M620.5 115.011L619.5 159.011" stroke="#303030"/>
<path d="M618.5 115.011L617.5 159.011" stroke="#303030"/>
<path d="M711.5 115.011L710.5 159.011" stroke="#303030"/>
<path d="M709.5 115.011L708.5 159.011" stroke="#303030"/>
<path d="M600.5 117.011L599.5 161.011" stroke="#303030"/>
<path d="M598.5 117.011L597.5 161.011" stroke="#303030"/>
<path d="M580.5 117.011L579.5 161.011" stroke="#303030"/>
<path d="M578.5 117.011L577.5 161.011" stroke="#303030"/>
<path d="M562.5 117.011L561.5 161.011" stroke="#303030"/>
<path d="M560.5 117.011L559.5 161.011" stroke="#303030"/>
<path d="M544.5 117.011L543.5 161.011" stroke="#303030"/>
<path d="M542.5 117.011L541.5 161.011" stroke="#303030"/>
<path d="M526.5 116.011L525.5 160.011" stroke="#303030"/>
<path d="M524.5 116.011L523.5 160.011" stroke="#303030"/>
<path d="M508.5 115.011L507.5 159.011" stroke="#303030"/>
<path d="M506.5 115.011L505.5 159.011" stroke="#303030"/>
<path d="M490.5 117.011L489.5 161.011" stroke="#303030"/>
<path d="M488.5 117.011L487.5 161.011" stroke="#303030"/>
<path d="M474.5 117.011L473.5 161.011" stroke="#303030"/>
<path d="M472.5 117.011L471.5 161.011" stroke="#303030"/>
<path d="M458.5 117.011L457.5 161.011" stroke="#303030"/>
<path d="M456.5 117.011L455.5 161.011" stroke="#303030"/>
<path d="M442.5 117.011L441.5 161.011" stroke="#303030"/>
<path d="M440.5 117.011L439.5 161.011" stroke="#303030"/>
<path d="M428.5 116.011L427.5 160.011" stroke="#303030"/>
<path d="M426.5 116.011L425.5 160.011" stroke="#303030"/>
<path d="M416.5 117.011L415.5 161.011" stroke="#303030"/>
<path d="M414.5 117.011L413.5 161.011" stroke="#303030"/>
<path d="M404.5 117.011L403.5 161.011" stroke="#303030"/>
<path d="M402.5 117.011L401.5 161.011" stroke="#303030"/>
<path d="M394.5 117.011L393.5 161.011" stroke="#303030"/>
<path d="M392.5 117.011L391.5 161.011" stroke="#303030"/>
<path d="M394.5 117.011L393.5 161.011" stroke="#303030"/>
<path d="M392.5 117.011L391.5 161.011" stroke="#303030"/>
<path d="M384.5 117.011L383.5 161.011" stroke="#303030"/>
<path d="M382.5 117.011L381.5 161.011" stroke="#303030"/>
<path d="M374.5 117.011L373.5 161.011" stroke="#303030"/>
<path d="M372.5 117.011L371.5 161.011" stroke="#303030"/>
<path d="M367.5 117.011L366.5 161.011" stroke="#303030"/>
<path d="M365.5 117.011L364.5 161.011" stroke="#303030"/>
<path d="M360.5 117.011L359.5 161.011" stroke="#303030"/>
<path d="M358.5 117.011L357.5 161.011" stroke="#303030"/>
<path d="M353.5 117.011L352.5 161.011" stroke="#303030"/>
<path d="M351.5 117.011L350.5 161.011" stroke="#303030"/>
<path d="M346.5 117.011L345.5 161.011" stroke="#303030"/>
<path d="M344.5 117.011L343.5 161.011" stroke="#303030"/>
<path d="M803.986 78.9866L798.667 76.2594C797.684 75.7555 796.48 76.1446 795.978 77.1284L793.254 82.4676C792.751 83.4515 793.141 84.6576 794.124 85.1615L799.444 87.8888C800.427 88.3927 801.63 88.0036 802.132 87.0197L804.857 81.6806C805.359 80.6967 804.969 79.4906 803.986 78.9866Z" stroke="black" stroke-width="2"/>
<path d="M819.949 86.9866L814.63 84.2594C813.647 83.7555 812.443 84.1446 811.941 85.1284L809.216 90.4676C808.714 91.4515 809.104 92.6576 810.087 93.1615L815.407 95.8888C816.389 96.3927 817.593 96.0036 818.095 95.0197L820.82 89.6806C821.322 88.6967 820.932 87.4906 819.949 86.9866Z" stroke="black" stroke-width="2"/>
<path d="M835.911 94.9866L830.592 92.2594C829.609 91.7555 828.405 92.1446 827.903 93.1284L825.178 98.4676C824.676 99.4515 825.066 100.658 826.049 101.162L831.368 103.889C832.351 104.393 833.555 104.004 834.057 103.02L836.782 97.6806C837.284 96.6967 836.894 95.4906 835.911 94.9866Z" stroke="black" stroke-width="2"/>
<path d="M850.876 102.987L845.557 100.259C844.574 99.7555 843.37 100.145 842.868 101.128L840.143 106.468C839.641 107.452 840.031 108.658 841.014 109.162L846.334 111.889C847.316 112.393 848.52 112.004 849.022 111.02L851.747 105.681C852.249 104.697 851.859 103.491 850.876 102.987Z" stroke="black" stroke-width="2"/>
<path d="M860.522 108.259L865.841 110.987C866.824 111.491 867.214 112.697 866.712 113.681L863.988 119.02C863.485 120.004 862.282 120.393 861.299 119.889L855.979 117.162C854.996 116.658 854.607 115.451 855.109 114.468L857.833 109.128C858.335 108.145 859.539 107.755 860.522 108.259Z" stroke="black" stroke-width="2"/>
<path d="M880.806 118.987L875.487 116.26C874.504 115.756 873.3 116.145 872.798 117.129L870.073 122.468C869.571 123.452 869.961 124.658 870.944 125.162L876.263 127.889C877.246 128.393 878.45 128.004 878.952 127.02L881.677 121.681C882.179 120.697 881.789 119.491 880.806 118.987Z" stroke="black" stroke-width="2"/>
<path d="M799.401 88.859L795.859 87L794 90.5418L797.542 92.4008L799.401 88.859Z" fill="#020202"/>
<path d="M815.401 96.859L811.859 95L810 98.5418L813.542 100.401L815.401 96.859Z" fill="#020202"/>
<path d="M831.249 105.304L826.859 103L825 106.542L829.39 108.846L831.249 105.304Z" fill="#020202"/>
<path d="M846.627 113.428L842 111L839.915 114.972L844.542 117.401L846.627 113.428Z" fill="#020202"/>
<path d="M861.712 121.428L857.085 119L855 122.972L859.627 125.401L861.712 121.428Z" fill="#020202"/>
<path d="M876.712 129.428L872.085 127L870 130.972L874.627 133.401L876.712 129.428Z" fill="#020202"/>
<path d="M741.5 116V160" stroke="black"/>
<path d="M169.376 107.671L175.961 115.197" stroke="black"/>
<path d="M169.376 161.671L175.961 169.197" stroke="black"/>
<path d="M197 222.5C205.008 222.5 211.5 216.008 211.5 208C211.5 199.992 205.008 193.5 197 193.5C188.992 193.5 182.5 199.992 182.5 208C182.5 216.008 188.992 222.5 197 222.5Z" stroke="black"/>
<path d="M197 217.5C202.247 217.5 206.5 213.247 206.5 208C206.5 202.753 202.247 198.5 197 198.5C191.753 198.5 187.5 202.753 187.5 208C187.5 213.247 191.753 217.5 197 217.5Z" stroke="black"/>
<path d="M157 233C161.418 233 165 229.418 165 225C165 220.582 161.418 217 157 217C152.582 217 149 220.582 149 225C149 229.418 152.582 233 157 233Z" stroke="black" stroke-width="4"/>
<path d="M128 247C132.418 247 136 243.418 136 239C136 234.582 132.418 231 128 231C123.582 231 120 234.582 120 239C120 243.418 123.582 247 128 247Z" stroke="black" stroke-width="4"/>
<path d="M111 224C115.418 224 119 220.418 119 216C119 211.582 115.418 208 111 208C106.582 208 103 211.582 103 216C103 220.418 106.582 224 111 224Z" stroke="black" stroke-width="4"/>
<path d="M329 106.5H319C313.753 106.5 309.5 110.753 309.5 116V161C309.5 166.247 313.753 170.5 319 170.5H329C334.247 170.5 338.5 166.247 338.5 161V116C338.5 110.753 334.247 106.5 329 106.5Z" stroke="black"/>
<path d="M335 111.5H313C311.619 111.5 310.5 112.619 310.5 114V163C310.5 164.381 311.619 165.5 313 165.5H335C336.381 165.5 337.5 164.381 337.5 163V114C337.5 112.619 336.381 111.5 335 111.5Z" stroke="black"/>
<path d="M318 111C319.105 111 320 110.105 320 109C320 107.895 319.105 107 318 107C316.895 107 316 107.895 316 109C316 110.105 316.895 111 318 111Z" fill="black"/>
<path d="M330 111C331.105 111 332 110.105 332 109C332 107.895 331.105 107 330 107C328.895 107 328 107.895 328 109C328 110.105 328.895 111 330 111Z" fill="black"/>
<path d="M318 170C319.105 170 320 169.105 320 168C320 166.895 319.105 166 318 166C316.895 166 316 166.895 316 168C316 169.105 316.895 170 318 170Z" fill="black"/>
<path d="M330 170C331.105 170 332 169.105 332 168C332 166.895 331.105 166 330 166C328.895 166 328 166.895 328 168C328 169.105 328.895 170 330 170Z" fill="black"/>
<path d="M233 106.5H223C217.753 106.5 213.5 110.753 213.5 116V161C213.5 166.247 217.753 170.5 223 170.5H233C238.247 170.5 242.5 166.247 242.5 161V116C242.5 110.753 238.247 106.5 233 106.5Z" stroke="black"/>
<path d="M239 111.5H217C215.619 111.5 214.5 112.619 214.5 114V163C214.5 164.381 215.619 165.5 217 165.5H239C240.381 165.5 241.5 164.381 241.5 163V114C241.5 112.619 240.381 111.5 239 111.5Z" stroke="black"/>
<path d="M222 111C223.105 111 224 110.105 224 109C224 107.895 223.105 107 222 107C220.895 107 220 107.895 220 109C220 110.105 220.895 111 222 111Z" fill="black"/>
<path d="M234 111C235.105 111 236 110.105 236 109C236 107.895 235.105 107 234 107C232.895 107 232 107.895 232 109C232 110.105 232.895 111 234 111Z" fill="black"/>
<path d="M222 170C223.105 170 224 169.105 224 168C224 166.895 223.105 166 222 166C220.895 166 220 166.895 220 168C220 169.105 220.895 170 222 170Z" fill="black"/>
<path d="M234 170C235.105 170 236 169.105 236 168C236 166.895 235.105 166 234 166C232.895 166 232 166.895 232 168C232 169.105 232.895 170 234 170Z" fill="black"/>
<path d="M204.5 138.5C204.5 147.49 204.499 155.571 203.63 161.407C203.196 164.329 202.551 166.63 201.618 168.189C200.7 169.723 199.532 170.5 198 170.5C196.468 170.5 195.3 169.723 194.382 168.189C193.449 166.63 192.804 164.329 192.37 161.407C191.501 155.571 191.5 147.49 191.5 138.5C191.5 129.51 191.501 121.429 192.37 115.593C192.804 112.671 193.449 110.37 194.382 108.811C195.3 107.277 196.468 106.5 198 106.5C199.532 106.5 200.7 107.277 201.618 108.811C202.551 110.37 203.196 112.671 203.63 115.593C204.499 121.429 204.5 129.51 204.5 138.5ZM179 138.5C179 147.49 178.999 155.571 178.13 161.407C177.696 164.329 177.051 166.63 176.118 168.189C175.2 169.723 174.032 170.5 172.5 170.5C170.968 170.5 169.8 169.723 168.882 168.189C167.949 166.63 167.304 164.329 166.87 161.407C166.001 155.571 166 147.49 166 138.5C166 129.51 166.001 121.429 166.87 115.593C167.304 112.671 167.949 110.37 168.882 108.811C169.8 107.277 170.968 106.5 172.5 106.5C174.032 106.5 175.2 107.277 176.118 108.811C177.051 110.37 177.696 112.671 178.13 115.593C178.999 121.429 179 129.51 179 138.5Z" stroke="black"/>
<path d="M172 116C174.761 116 177 113.761 177 111C177 108.239 174.761 106 172 106C169.239 106 167 108.239 167 111C167 113.761 169.239 116 172 116Z" fill="#D9D9D9" stroke="black"/>
<path d="M168.304 108.603L176.244 114.682" stroke="black"/>
<path d="M177 165C177 167.761 174.761 170 172 170C169.239 170 167 167.761 167 165C167 162.239 169.239 160 172 160C174.761 160 177 162.239 177 165Z" fill="#D9D9D9" stroke="black"/>
<path d="M175.168 161.236L170.441 170.048" stroke="black"/>
<path d="M738.5 116V160" stroke="black"/>
<path d="M791.152 107.476L741.152 123.476" stroke="#3F3F3F"/>
<path d="M801.129 112.483L741.129 128.483" stroke="#3F3F3F"/>
<path d="M817.078 122.494L741.078 134.494" stroke="#3F3F3F"/>
<path d="M833.059 130.496L741.059 141.496" stroke="#3F3F3F"/>
<path d="M848.042 138.498L741.042 147.498" stroke="#3F3F3F"/>
<path d="M863.033 145.499L741.033 153.499" stroke="#3F3F3F"/>
<path d="M741 123.5H179" stroke="#A5A5A5"/>
<path d="M741 128.5H179" stroke="#A5A5A5"/>
<path d="M741 134.5H179" stroke="#A5A5A5"/>
<path d="M741 141.5H179" stroke="#A5A5A5"/>
<path d="M741 147.5H179" stroke="#A5A5A5"/>
<path d="M741 153.5H179" stroke="#A5A5A5"/>
<path d="M791 106.5C792.381 106.5 793.5 105.381 793.5 104C793.5 102.619 792.381 101.5 791 101.5C789.619 101.5 788.5 102.619 788.5 104C788.5 105.381 789.619 106.5 791 106.5Z" fill="#D9D9D9" stroke="black" stroke-width="3"/>
<path d="M821 124.5C822.381 124.5 823.5 123.381 823.5 122C823.5 120.619 822.381 119.5 821 119.5C819.619 119.5 818.5 120.619 818.5 122C818.5 123.381 819.619 124.5 821 124.5Z" fill="#D9D9D9" stroke="black" stroke-width="3"/>
<path d="M805 114.5C806.381 114.5 807.5 113.381 807.5 112C807.5 110.619 806.381 109.5 805 109.5C803.619 109.5 802.5 110.619 802.5 112C802.5 113.381 803.619 114.5 805 114.5Z" fill="#D9D9D9" stroke="black" stroke-width="3"/>
<path d="M867 147.5C868.381 147.5 869.5 146.381 869.5 145C869.5 143.619 868.381 142.5 867 142.5C865.619 142.5 864.5 143.619 864.5 145C864.5 146.381 865.619 147.5 867 147.5Z" fill="#D9D9D9" stroke="black" stroke-width="3"/>
<path d="M837 132.5C838.381 132.5 839.5 131.381 839.5 130C839.5 128.619 838.381 127.5 837 127.5C835.619 127.5 834.5 128.619 834.5 130C834.5 131.381 835.619 132.5 837 132.5Z" fill="#D9D9D9" stroke="black" stroke-width="3"/>
<path d="M852 140.5C853.381 140.5 854.5 139.381 854.5 138C854.5 136.619 853.381 135.5 852 135.5C850.619 135.5 849.5 136.619 849.5 138C849.5 139.381 850.619 140.5 852 140.5Z" fill="#D9D9D9" stroke="black" stroke-width="3"/>
</svg>
